<svg id="Layer_1" data-name="Layer 1" xmlns="http://www.w3.org/2000/svg" viewBox="0 0 757.96 743.73"><g id="Group_4" data-name="Group 4"><path id="Path_31" data-name="Path 31" d="M91.45,0a32,32,0,0,0-32,32V710.43a32,32,0,0,0,32,32h297a32,32,0,0,0,32-32V32a32,32,0,0,0-32-32Z" transform="translate(0 0)" fill="#e6e6e6"/><path id="Path_32" data-name="Path 32" d="M400.66,157V102.54A125.19,125.19,0,0,1,319.8,42.35h0A23.79,23.79,0,0,1,305.58,47H262.35A178.55,178.55,0,0,0,400.66,157Z" transform="translate(0 0)" fill="#fff"/><path id="Path_33" data-name="Path 33" d="M400.66,99.42V47.12A29.13,29.13,0,0,0,371.55,18h-42V23a23.92,23.92,0,0,1-7.4,17.33,122.29,122.29,0,0,0,78.5,59.05Z" transform="translate(0 0)" fill="#fff"/><path id="Path_34" data-name="Path 34" d="M198.77,47h-27a24,24,0,0,1-24-24V18H108.38A29.13,29.13,0,0,0,79.25,47.12h0v648.2a29.08,29.08,0,0,0,29.05,29.11H371.53a28.71,28.71,0,0,0,3.59-.22,29.14,29.14,0,0,0,25.54-28.89V218.15C305,207.07,225.2,138.77,198.77,47Z" transform="translate(0 0)" fill="#fff"/><path id="Path_35" data-name="Path 35" d="M259.07,47H201.93c26.3,90,104.68,157,198.73,168.07v-55A181.68,181.68,0,0,1,259.07,47Z" transform="translate(0 0)" fill="#fff"/><path id="Path_36" data-name="Path 36" d="M380.61,532.78h-270a5,5,0,0,1-5-5v-67a5,5,0,0,1,5-5h270a5,5,0,0,1,5,5v67A5,5,0,0,1,380.61,532.78Zm-270-75a3,3,0,0,0-3,3v67a3,3,0,0,0,3,3h270a3,3,0,0,0,3-3v-67a3,3,0,0,0-3-3Z" transform="translate(0 0)" fill="#e6e6e6"/><circle id="Ellipse_4" data-name="Ellipse 4" cx="145.61" cy="494.29" r="21" fill="#3f3d56"/><path id="Path_37" data-name="Path 37" d="M194.11,480.29a3.5,3.5,0,0,0,0,7h165a3.5,3.5,0,0,0,0-7Z" transform="translate(0 0)" fill="#e6e6e6"/><path id="Path_38" data-name="Path 38" d="M194.11,501.29a3.5,3.5,0,0,0,0,7h165a3.5,3.5,0,0,0,0-7Z" transform="translate(0 0)" fill="#e6e6e6"/><path id="Path_39" data-name="Path 39" d="M380.61,644.78h-270a5,5,0,0,1-5-5v-67a5,5,0,0,1,5-5h270a5,5,0,0,1,5,5v67A5,5,0,0,1,380.61,644.78Zm-270-75a3,3,0,0,0-3,3v67a3,3,0,0,0,3,3h270a3,3,0,0,0,3-3v-67a3,3,0,0,0-3-3Z" transform="translate(0 0)" fill="#e6e6e6"/><circle id="Ellipse_5" data-name="Ellipse 5" cx="145.61" cy="606.29" r="21" fill="#3f3d56"/><path id="Path_40" data-name="Path 40" d="M194.11,592.29a3.5,3.5,0,0,0,0,7h165a3.5,3.5,0,0,0,0-7Z" transform="translate(0 0)" fill="#e6e6e6"/><path id="Path_41" data-name="Path 41" d="M194.11,613.29a3.5,3.5,0,0,0,0,7h165a3.5,3.5,0,0,0,0-7Z" transform="translate(0 0)" fill="#e6e6e6"/><path id="Path_42" data-name="Path 42" d="M239.93,394a95,95,0,0,1-95-94.92V299c0-.2,0-.41,0-.61.29-52,42.9-94.39,95-94.39a95,95,0,0,1,0,190Zm0-188a93.2,93.2,0,0,0-93,92.46c0,.21,0,.38,0,.54a93,93,0,1,0,93-93Z" transform="translate(0 0)" fill="#3f3d56"/><path id="Path_43" data-name="Path 43" d="M283,296.81l-65-37.54a2,2,0,0,0-2.73.73,2,2,0,0,0-.27,1v75.08a2,2,0,0,0,2,2,2,2,0,0,0,1-.27l65-37.54a2,2,0,0,0,.73-2.73,1.83,1.83,0,0,0-.73-.73l-65-37.55a2,2,0,0,0-2.73.74,2,2,0,0,0-.27,1v75.08a2,2,0,0,0,2,2,2,2,0,0,0,1-.27l65-37.54a2,2,0,0,0,.73-2.73,1.83,1.83,0,0,0-.73-.73Z" transform="translate(0 0)" fill="#e74c3c"/><path id="Path_54" data-name="Path 54" d="M757.57,743.73H0v-2.18H758Z" transform="translate(0 0)" fill="#3f3d56"/><g id="Group_1" data-name="Group 1"><circle id="Ellipse_3" data-name="Ellipse 3" cx="590.68" cy="338.14" r="27.94" fill="#ffb8b8"/><path id="Path_21" data-name="Path 21" d="M588.87,494.75A12.52,12.52,0,0,1,597,479a10.76,10.76,0,0,1,1.38-.36,11.57,11.57,0,0,1,1.66-.2l29.42-47.23-26.87-25.56A10.73,10.73,0,1,1,617.21,390l.26.25,37.11,36.6.08.09a9.72,9.72,0,0,1-.68,11.58l-41.23,48.76c.12.39.22.79.31,1.19a12.52,12.52,0,0,1-9.83,14.72,10.88,10.88,0,0,1-1.41.2c-.35,0-.7.05-1.06.05A12.56,12.56,0,0,1,588.87,494.75Z" transform="translate(0 0)" fill="#ffb8b8"/><path id="Path_22" data-name="Path 22" d="M544.67,726.93H530.72l-6.63-53.78h20.58Z" transform="translate(0 0)" fill="#ffb8b8"/><path id="Path_23" data-name="Path 23" d="M548.79,741h-46.1v-1.14a18.07,18.07,0,0,1,18.07-18.07h28Z" transform="translate(0 0)" fill="#2f2e41"/><path id="Path_24" data-name="Path 24" d="M683.27,707.66l-12,7.13L638.07,672l17.68-10.53Z" transform="translate(0 0)" fill="#ffb8b8"/><path id="Path_25" data-name="Path 25" d="M654.41,741.23l-.58-1a18.07,18.07,0,0,1,6.28-24.78l24.08-14.34,9.83,16.5Z" transform="translate(0 0)" fill="#2f2e41"/><path id="Path_26" data-name="Path 26" d="M522.33,703.25c-9.34-110-14.9-212.18,19.25-253.86l.26-.33,57.47,23,.1.21c.19.42,19.3,42.46,14.85,70.74l14.17,65.2,46.22,77.39a5.11,5.11,0,0,1-1.77,7,4.25,4.25,0,0,1-.56.29l-20.09,8.84a5.13,5.13,0,0,1-6.42-2l-50.28-82-28.4-62.89a1.71,1.71,0,0,0-2.26-.85,1.7,1.7,0,0,0-1,1.38l-15.74,148a5.12,5.12,0,0,1-5.09,4.58H527.43A5.16,5.16,0,0,1,522.33,703.25Z" transform="translate(0 0)" fill="#2f2e41"/><path id="Path_27" data-name="Path 27" d="M541.77,450.26l-.27-.13,0-.3c-2.15-15,.39-31.72,7.55-49.62a39.41,39.41,0,0,1,45.73-23.6h0a39.4,39.4,0,0,1,25.09,19.3,39,39,0,0,1,2.7,31.19c-9,26.39-20.73,51.08-20.85,51.32l-.25.52Z" transform="translate(0 0)" fill="#e74c3c"/><path id="Path_28" data-name="Path 28" d="M500.42,512.57a12.78,12.78,0,0,1,9.16-13.93l53.74-103.18a10.3,10.3,0,0,1,17.83,10.33c-.1.17-.2.33-.31.49l-55,102.45a13.47,13.47,0,0,1,.2,1.89,12.87,12.87,0,0,1-12.51,13.21H513a12.85,12.85,0,0,1-12.58-11.26Z" transform="translate(0 0)" fill="#ffb8b8"/><path id="Path_29" data-name="Path 29" d="M556.81,322.35h44.35V303c-9.73-3.87-19.26-7.16-25,0A19.33,19.33,0,0,0,556.81,322.35Z" transform="translate(0 0)" fill="#2f2e41"/><path id="Path_30" data-name="Path 30" d="M603.62,299.61c26.52,0,33.94,33.24,33.94,52,0,10.46-4.73,14.2-12.16,15.46l-2.62-14-6.15,14.6c-2.09,0-4.28,0-6.56-.07L608,363.3l-4.65,4.22c-18.61,0-33.66,2.74-33.66-15.92S576.19,299.61,603.62,299.61Z" transform="translate(0 0)" fill="#2f2e41"/></g><g id="Group_2" data-name="Group 2"><path id="Path_53" data-name="Path 53" d="M595.72,327V301.13a2.33,2.33,0,0,0-2.33-2.33h-4.67a2.33,2.33,0,0,0-2.33,2.33h0v24.31a14.74,14.74,0,1,0,9.33,1.56Z" transform="translate(0 0)" fill="#e74c3c"/><circle id="Ellipse_8" data-name="Ellipse 8" cx="589.5" cy="340.01" r="7" fill="#fff"/></g></g></svg>