<svg id="a5f74472-7ecd-48f3-bbcf-6d4dac68fd10" xmlns="http://www.w3.org/2000/svg" viewBox="0 0 697.96 631.46"><path d="M305.05,522.25H13.83A13.85,13.85,0,0,1,0,508.42V113.07A13.85,13.85,0,0,1,13.83,99.24H305.05a13.85,13.85,0,0,1,13.83,13.83V508.42A13.84,13.84,0,0,1,305.05,522.25Z" transform="translate(0 0)" fill="#fff"/><path d="M146.31,202.13A54.11,54.11,0,0,1,109,253.58c-.32.1-.65.21-1,.3-1.4.44-2.83.81-4.28,1.12a53.62,53.62,0,0,1-8,1.11c-1.17.08-2.34.11-3.52.11a53.89,53.89,0,0,1-17.88-3l-.5-.18a54.1,54.1,0,1,1,72.47-50.88Z" transform="translate(0 0)" fill="#fff"/><circle cx="90.93" cy="211.65" r="26.32" fill="#e74c3c"/><path d="M92.46,225.83l0-1c-1.83,0-3.44-.16-4.65-1a3,3,0,0,1-1.17-2.23,1.7,1.7,0,0,1,.56-1.42,3,3,0,0,1,3,0l.81.38-1.56-11.41-1,.14,1.33,9.7a3.45,3.45,0,0,0-3.28.47,2.69,2.69,0,0,0-.92,2.21,4,4,0,0,0,1.58,3C88.81,225.73,90.84,225.79,92.46,225.83Z" transform="translate(0 0)" fill="#2f2e41"/><rect x="78.44" y="210.06" width="5.3" height="0.98" fill="#2f2e41"/><rect x="95.16" y="210.06" width="5.3" height="0.98" fill="#2f2e41"/><path d="M98.4,248.45a4.77,4.77,0,0,0,.11-1,4.67,4.67,0,0,0-4.67-4.67H87a4.7,4.7,0,0,0-4.57,5.66,26.73,26.73,0,0,0-7.28,3.6c-.43.3-.86.63-1.27,1l.5.18a53.89,53.89,0,0,0,17.88,3c1.18,0,2.36,0,3.52-.11a53.62,53.62,0,0,0,8-1.11c1.45-.31,2.88-.68,4.28-1.12A26.57,26.57,0,0,0,98.4,248.45Z" transform="translate(0 0)" fill="#2f2e41"/><path d="M97.52,255.48a3.58,3.58,0,0,0-1.78.63,53.62,53.62,0,0,0,8-1.11Z" transform="translate(0 0)" fill="#2f2e41"/><path d="M114.8,205.4,69.08,188.68a2,2,0,0,1-1.17-2.52l.15-.74c3.57-9.76,15.41-15.9,25.17-12.33l14.06,5.15c9.76,3.57,14,15.13,10.43,24.89l-.4,1.1A2,2,0,0,1,114.8,205.4Z" transform="translate(0 0)" fill="#2f2e41"/><path d="M117.26,206.33c-63.72,2.35-69.29-5.65-49.88-18.24l4.12-7.58,47.21,17.21Z" transform="translate(0 0)" fill="#2f2e41"/><ellipse cx="100.76" cy="175.84" rx="2.21" ry="4.18" transform="translate(-96.64 221.71) rotate(-73.27)" fill="#2f2e41"/><path d="M92.22,257.7a55.55,55.55,0,0,1-18.37-3.11l-.51-.19a55.56,55.56,0,1,1,36.09.58l-1,.32c-1.4.43-2.88.81-4.4,1.14a53.8,53.8,0,0,1-8.19,1.14C94.65,257.66,93.43,257.7,92.22,257.7Zm0-108.18A52.62,52.62,0,0,0,74.34,251.63l.49.17a52.29,52.29,0,0,0,17.39,2.95c1.14,0,2.29,0,3.42-.12a52.1,52.1,0,0,0,7.76-1.07c1.43-.31,2.83-.68,4.16-1.09.33-.09.64-.19,1-.29A52.62,52.62,0,0,0,92.22,149.52Z" transform="translate(0 0)" fill="#ccc"/><path d="M18.59,368.41" transform="translate(0 0)" fill="#f2f2f2"/><path d="M305.05,522.25H13.83A13.85,13.85,0,0,1,0,508.42V113.07A13.85,13.85,0,0,1,13.83,99.24H305.05a13.85,13.85,0,0,1,13.83,13.83V508.42A13.84,13.84,0,0,1,305.05,522.25ZM13.83,100.87a12.21,12.21,0,0,0-12.2,12.2V508.42a12.2,12.2,0,0,0,12.2,12.2H305.05a12.21,12.21,0,0,0,12.21-12.2V113.07a12.23,12.23,0,0,0-12.21-12.2Z" transform="translate(0 0)" fill="#ccc"/><path d="M248.68,201.92H166.27a6.52,6.52,0,1,1,0-13h82.41a6.52,6.52,0,1,1,0,13Z" transform="translate(0 0)" fill="#e6e6e6"/><path d="M275.57,223.93H166.27a6.52,6.52,0,0,1,0-13h109.3a6.52,6.52,0,0,1,0,13Z" transform="translate(0 0)" fill="#e6e6e6"/><path d="M248.56,308.32H43.31a6.52,6.52,0,0,1,0-13H248.56a6.52,6.52,0,0,1,0,13Z" transform="translate(0 0)" fill="#e6e6e6"/><path d="M275.45,330.32H43.31a6.52,6.52,0,0,1,0-13H275.45a6.52,6.52,0,1,1,0,13Z" transform="translate(0 0)" fill="#e6e6e6"/><path d="M248.56,380.89H43.31a6.52,6.52,0,0,1,0-13H248.56a6.52,6.52,0,0,1,0,13Z" transform="translate(0 0)" fill="#e6e6e6"/><path d="M275.45,402.89H43.31a6.52,6.52,0,0,1,0-13H275.45a6.52,6.52,0,0,1,0,13Z" transform="translate(0 0)" fill="#e6e6e6"/><path d="M248.56,453.46H43.31a6.52,6.52,0,0,1,0-13H248.56a6.52,6.52,0,0,1,0,13Z" transform="translate(0 0)" fill="#e6e6e6"/><path d="M275.45,475.46H43.31a6.52,6.52,0,1,1,0-13H275.45a6.52,6.52,0,0,1,0,13Z" transform="translate(0 0)" fill="#e6e6e6"/><path d="M684.13,423H392.91a13.85,13.85,0,0,1-13.83-13.83V13.83A13.85,13.85,0,0,1,392.91,0H684.13A13.84,13.84,0,0,1,698,13.83V409.18A13.85,13.85,0,0,1,684.13,423Z" transform="translate(0 0)" fill="#fff"/><path d="M684.13,423H392.91a13.85,13.85,0,0,1-13.83-13.83V13.83A13.85,13.85,0,0,1,392.91,0H684.13A13.84,13.84,0,0,1,698,13.83V409.18A13.85,13.85,0,0,1,684.13,423ZM392.91,1.63a12.2,12.2,0,0,0-12.2,12.2V409.18a12.21,12.21,0,0,0,12.2,12.2H684.13a12.23,12.23,0,0,0,12.21-12.2V13.83a12.21,12.21,0,0,0-12.21-12.2Z" transform="translate(0 0)" fill="#ccc"/><path d="M525.53,102.35a54.09,54.09,0,1,1-54.09-54.09A54.09,54.09,0,0,1,525.53,102.35Z" transform="translate(0 0)" fill="#fff"/><path d="M496.44,111.61c-.59,34.59-52.05,34.59-52.63,0C444.4,77,495.85,77,496.44,111.61Z" transform="translate(0 0)" fill="#e74c3c"/><path d="M469.08,122.34l0-1c6.78.91,8.24-7.49,1.4-4.35L472,105.6l1,.14-1.33,9.7C478.86,114.37,476.2,123.33,469.08,122.34Z" transform="translate(0 0)" fill="#2f2e41"/><rect x="477.81" y="106.57" width="5.3" height="0.98" fill="#2f2e41"/><rect x="461.09" y="106.57" width="5.3" height="0.98" fill="#2f2e41"/><path d="M478.65,148.4c1-7-7.12-5.59-11.44-5.66a4.68,4.68,0,0,0-4.66,4.7,4.47,4.47,0,0,0,.1,1,25.57,25.57,0,0,0-9.09,5,54.3,54.3,0,0,0,34.63.39A25.49,25.49,0,0,0,478.65,148.4Z" transform="translate(0 0)" fill="#2f2e41"/><path d="M457.75,99.16c4.88-2.82,10.79-.66,15.83.53,9.56,2.93,23-.74,24.12-12.13,1.21-10.59-13.27-16.49-17.9-6l1.35-.18c-15-22.31-41.14-21.47-41,9.21-.05,1,1.42,1,1.48,0C441.1,72.56,453.07,60.2,470,71.82a49.83,49.83,0,0,1,9.89,10.36c1.76,2,2.15-6.53,10.58-4.3,9.28,3.59,6.25,16.88-2.05,19.79-10.24,5.24-21.34-4.91-31.39.22a.72.72,0,0,0-.23,1,.73.73,0,0,0,1,.26Z" transform="translate(0 0)" fill="#2f2e41"/><path d="M471.44,157.92a55.53,55.53,0,1,1,17.2-2.72A55.52,55.52,0,0,1,471.44,157.92Zm0-108.18a52.62,52.62,0,1,0,52.61,52.63v0A52.67,52.67,0,0,0,471.44,49.74Z" transform="translate(0 0)" fill="#ccc"/><path d="M627.76,102.68H545.35a6.52,6.52,0,1,1,0-13h82.41a6.52,6.52,0,0,1,0,13Z" transform="translate(0 0)" fill="#e6e6e6"/><path d="M654.65,124.68H545.35a6.52,6.52,0,0,1,0-13H654.65a6.52,6.52,0,0,1,0,13Z" transform="translate(0 0)" fill="#e6e6e6"/><path d="M627.64,209.07H422.39a6.52,6.52,0,0,1,0-13H627.64a6.52,6.52,0,0,1,0,13Z" transform="translate(0 0)" fill="#e6e6e6"/><path d="M654.53,231.07H422.39a6.52,6.52,0,0,1,0-13H654.53a6.52,6.52,0,1,1,0,13Z" transform="translate(0 0)" fill="#e6e6e6"/><path d="M627.64,281.65H422.39a6.52,6.52,0,0,1,0-13H627.64a6.52,6.52,0,0,1,0,13Z" transform="translate(0 0)" fill="#e6e6e6"/><path d="M654.53,303.65H422.39a6.52,6.52,0,0,1,0-13H654.53a6.52,6.52,0,0,1,0,13Z" transform="translate(0 0)" fill="#e6e6e6"/><path d="M627.64,354.22H422.39a6.52,6.52,0,0,1,0-13H627.64a6.52,6.52,0,0,1,0,13Z" transform="translate(0 0)" fill="#e6e6e6"/><path d="M654.53,376.22H422.39a6.52,6.52,0,0,1,0-13H654.53a6.52,6.52,0,0,1,0,13Z" transform="translate(0 0)" fill="#e6e6e6"/><path d="M508.42,593H217.2a13.83,13.83,0,0,1-13.83-13.82V183.85A13.84,13.84,0,0,1,217.2,170H508.42a13.84,13.84,0,0,1,13.83,13.83V579.2A13.83,13.83,0,0,1,508.42,593Z" transform="translate(0 0)" fill="#fff"/><path d="M241.49,271.8a53.91,53.91,0,0,0,15.9,38.31l1.29,1.24a53.51,53.51,0,0,0,8.59,6.54c.59.37,1.18.72,1.78,1.06a53.85,53.85,0,0,0,9.78,4.29c.58.19,1.18.37,1.77.54a54.38,54.38,0,0,0,32.86-.92l.62-.23a54.09,54.09,0,1,0-72.59-50.83Z" transform="translate(0 0)" fill="#fff"/><path d="M284.15,298.31a16.67,16.67,0,0,1-4.33,11.34c-2.78,3.06-6.92,5.08-11.09,4.24-3.85-.77-7-4.13-6.59-8.2a6.07,6.07,0,0,1,6.51-5.61,5,5,0,0,1,1,.16c3.65.94,5.11,6.21,2.06,8.68-.73.6-1.78-.44-1-1a3.67,3.67,0,0,0,.23-5.2,3.61,3.61,0,0,0-1.27-.91,4.64,4.64,0,0,0-5.82,3,5.21,5.21,0,0,0-.21,1.1c-.24,3.43,2.39,6,5.61,6.62,3.48.66,6.94-1.13,9.3-3.59a15.23,15.23,0,0,0,4.17-10.59.74.74,0,0,1,1.47,0Z" transform="translate(0 0)" fill="#2f2e41"/><circle cx="298.56" cy="281.37" r="26.32" fill="#e74c3c"/><path d="M297.21,292.6l0-1c1.83-.05,3.45-.16,4.66-1.05a3,3,0,0,0,1.17-2.22,1.75,1.75,0,0,0-.57-1.43,3,3,0,0,0-3,0l-.81.37,1.56-11.4,1,.13-1.33,9.7a3.49,3.49,0,0,1,3.29.47,2.68,2.68,0,0,1,.91,2.21,4,4,0,0,1-1.57,3C300.86,292.49,298.84,292.55,297.21,292.6Z" transform="translate(0 0)" fill="#2f2e41"/><rect x="305.94" y="276.83" width="5.3" height="0.98" fill="#2f2e41"/><rect x="289.22" y="276.83" width="5.3" height="0.98" fill="#2f2e41"/><path d="M280.6,323.78a54.38,54.38,0,0,0,32.86-.92l.62-.23a26.25,26.25,0,0,0-8.34-4.3,4.22,4.22,0,0,0,0-2.31,4.64,4.64,0,0,0-4.5-3.27h-6.41a4.64,4.64,0,0,0-4.49,3.26,4.25,4.25,0,0,0,0,2.32,26.06,26.06,0,0,0-7.43,3.64c-.46.32-.9.66-1.33,1S280.91,323.51,280.6,323.78Z" transform="translate(0 0)" fill="#2f2e41"/><path d="M319.17,278.58c0,4.43,2.19,8.11,5,8.75a4.24,4.24,0,0,0,.88.1c3.25,0,5.9-4,5.9-8.85a10.86,10.86,0,0,0-2.28-7,5.74,5.74,0,0,0-1.73-1.41,4.18,4.18,0,0,0-1.89-.46,4.31,4.31,0,0,0-2.52.84C320.56,272,319.17,275,319.17,278.58Z" transform="translate(0 0)" fill="#3f3d56"/><path d="M266.56,278.58c0,3.81,1.61,7.07,3.87,8.31a4.25,4.25,0,0,0,2,.54,3.59,3.59,0,0,0,.47,0c3-.36,5.43-4.18,5.43-8.82,0-3.73-1.54-6.92-3.71-8.22a4.12,4.12,0,0,0-4.08-.17,5.84,5.84,0,0,0-1.74,1.42A10.89,10.89,0,0,0,266.56,278.58Z" transform="translate(0 0)" fill="#3f3d56"/><path d="M270.8,286a.74.74,0,0,0,.74-.74.59.59,0,0,0,0-.23,28.77,28.77,0,1,1,55.41-3.23.74.74,0,0,0,.57.87.75.75,0,0,0,.88-.57,30.24,30.24,0,1,0-58.26,3.4A.75.75,0,0,0,270.8,286Z" transform="translate(0 0)" fill="#3f3d56"/><path d="M311.78,264.32a3.68,3.68,0,0,1-.57,4.56c-1.43,1.6-3.71,1.7-5.69,1.4-2.22-.33-4.57-1.37-6.82-.67-1.91.6-3.28,2.34-5.27,2.77-1.76.39-3.87-.12-4.49-2-.3-.91,1.12-1.29,1.42-.4.4,1.22,2.13,1.2,3.12.86,1.58-.54,2.81-1.85,4.37-2.48a9.55,9.55,0,0,1,5.7,0c1.77.4,3.8,1,5.55.25,1.31-.55,2.34-2.28,1.4-3.56-.56-.76.72-1.5,1.28-.74Z" transform="translate(0 0)" fill="#2f2e41"/><path d="M295.58,327.36a55.65,55.65,0,0,1-15.39-2.16l-1.82-.56a55,55,0,0,1-10-4.41c-.6-.33-1.2-.69-1.84-1.08a55.29,55.29,0,0,1-8.81-6.72l-1.33-1.27A55.58,55.58,0,1,1,314.58,324l-.62.23A55.57,55.57,0,0,1,295.58,327.36Zm0-108.18a52.62,52.62,0,0,0-37.15,89.88c.41.4.83.81,1.26,1.21a52.21,52.21,0,0,0,8.35,6.37c.6.37,1.17.7,1.73,1a53.32,53.32,0,0,0,9.51,4.18c.59.19,1.17.36,1.72.52a52.8,52.8,0,0,0,32-.9l.6-.21a52.62,52.62,0,0,0-18-102.07Z" transform="translate(0 0)" fill="#ccc"/><path d="M508.42,593H217.2a13.83,13.83,0,0,1-13.83-13.82V183.85A13.84,13.84,0,0,1,217.2,170H508.42a13.84,13.84,0,0,1,13.83,13.83V579.2A13.83,13.83,0,0,1,508.42,593ZM217.2,171.64A12.21,12.21,0,0,0,205,183.85V579.2a12.21,12.21,0,0,0,12.2,12.2H508.42a12.21,12.21,0,0,0,12.2-12.2V183.85a12.21,12.21,0,0,0-12.2-12.21Z" transform="translate(0 0)" fill="#3f3d56"/><path d="M452.05,272.7H369.64a6.52,6.52,0,1,1,0-13h82.42a6.52,6.52,0,0,1,0,13Z" transform="translate(0 0)" fill="#e74c3c"/><path d="M478.94,294.7H369.64a6.52,6.52,0,1,1,0-13H478.94a6.52,6.52,0,0,1,0,13Z" transform="translate(0 0)" fill="#e74c3c"/><path d="M451.93,379.09H246.68a6.52,6.52,0,0,1,0-13H451.93a6.52,6.52,0,0,1,0,13Z" transform="translate(0 0)" fill="#ccc"/><path d="M478.82,401.09H246.68a6.52,6.52,0,0,1,0-13H478.82a6.52,6.52,0,0,1,0,13Z" transform="translate(0 0)" fill="#ccc"/><path d="M451.93,451.66H246.68a6.52,6.52,0,0,1,0-13H451.93a6.52,6.52,0,0,1,0,13Z" transform="translate(0 0)" fill="#ccc"/><path d="M478.82,473.66H246.68a6.52,6.52,0,0,1,0-13H478.82a6.52,6.52,0,0,1,0,13Z" transform="translate(0 0)" fill="#ccc"/><path d="M451.93,524.23H246.68a6.52,6.52,0,0,1,0-13H451.93a6.52,6.52,0,0,1,0,13Z" transform="translate(0 0)" fill="#ccc"/><path d="M478.82,546.24H246.68a6.52,6.52,0,0,1,0-13H478.82a6.52,6.52,0,0,1,0,13Z" transform="translate(0 0)" fill="#ccc"/><path d="M505,503a64.23,64.23,0,1,0,0,128.46h0A64.23,64.23,0,0,0,505,503Z" transform="translate(0 0)" fill="#e74c3c"/><path id="ba2462e0-2d61-4715-874d-575d790dfdd0" d="M499,593.91a7.84,7.84,0,0,1-4.69-1.56l-.08-.06-17.67-13.52a7.85,7.85,0,0,1,9.55-12.46l11.44,8.78,27-35.27a7.85,7.85,0,0,1,11-1.46h0l-.16.23.17-.23a7.86,7.86,0,0,1,1.45,11l-31.8,41.47A7.89,7.89,0,0,1,499,593.9Z" transform="translate(0 0)" fill="#fff"/></svg>